<svg xmlns="http://www.w3.org/2000/svg" width="641.797" height="350.412" viewBox="0 0 641.797 350.412">
  <g id="Group_4" data-name="Group 4" transform="translate(-107.516 -164.41)">
    <g id="Group_1" data-name="Group 1" transform="translate(108.017 401.262)">
      <path id="Path_21" data-name="Path 21" d="M-7.611-605.346C-27.064-611.793-39.7-627.4-40.4-647.884c-.715-20.61-.216-41.243-.364-61.876-.033-3.575,1.567-4.449,4.79-4.381,4.261.1,8.526.067,12.79.038,2.3-.015,4.6-.031,6.9-.026,8.636.011,8.636.023,8.636,8.421,0,14.81-.045,29.633.034,44.444a65.307,65.307,0,0,0,.76,10.634c2.372,13.835,11.259,21.45,24.174,21.019,12.961-.431,21.847-8.41,22.778-22.358,1.011-15.129.67-30.348.9-45.522.068-3.938.193-7.888-.012-11.815-.193-3.722,1.464-4.96,4.993-4.9,7.684.136,15.378.215,23.063-.012,3.791-.1,4.88,1.464,4.835,4.982-.137,10.5-.046,21.008-.046,31.505h-.068c0,9.374.238,18.76-.046,28.124-.737,24.2-15.991,41.436-39.791,46.3a86.887,86.887,0,0,1-17.5,1.846A75.582,75.582,0,0,1-7.611-605.346Zm389.294,2.781c-7.116-.318-14.267-.3-21.382-.034-4.154.158-5.516-1.181-5.459-5.436.216-16.877.091-33.764.091-50.641v-5.97l-1.408-.544c-2.27,2.8-4.55,5.584-6.787,8.4-5.924,7.5-11.792,15.061-17.762,22.517-4.324,5.4-5.482,5.369-9.726.034-6.991-8.807-13.937-17.648-20.929-26.466-1.135-1.442-2.337-2.826-4.641-5.6-.182,3.4-.364,5.278-.364,7.161-.011,16.7-.136,33.39.113,50.085.08,4.891-1.429,6.729-6.4,6.48-6.923-.352-13.88-.227-20.814-.113-3.416.057-5.142-.874-5.13-4.744q.136-50.919-.012-101.849c-.011-3.642,1.26-5,4.915-4.9,3,.086,6,.065,8.993.044,4.131-.028,8.26-.057,12.378.194a10.039,10.039,0,0,1,6.457,3.28c8.978,10.8,17.648,21.882,26.444,32.856,1.249,1.555,2.622,3,4.381,4.994,8.966-11.134,17.943-21.451,25.91-32.494,4.9-6.8,10.26-10.214,18.727-8.943a56.231,56.231,0,0,0,12.359.012c4.574-.329,6.277,1.3,6.208,6.026-.216,15.56-.079,31.131-.068,46.7,0,17.637-.1,35.275.113,52.9.053,4.432-1.407,6.067-5.449,6.067Q382.076-602.548,381.683-602.565Zm-180.659-5.8c.239-16.865.1-33.742.1-50.618.012-16.5.159-33-.091-49.506-.068-4.517,1.487-5.867,5.8-5.731,7.491.249,15,.136,22.495.012,3.348-.058,4.608,1.168,4.6,4.607q-.119,51.192.012,102.382c.012,3.473-1.294,4.6-4.608,4.551-7.5-.125-15-.17-22.495.08q-.3.01-.581.01C202.371-602.578,200.959-604.056,201.024-608.365ZM442.1-602.622c-7.1-.386-14.255-.216-21.371.011-4.018.137-5.663-1.089-5.64-5.391q.188-50.647,0-101.27c0-3.484.828-5.1,4.721-4.96q11.525.427,23.062.034c4.052-.125,5.118,1.464,5.084,5.278-.158,16.877-.068,33.753-.068,50.63-.012,16.5-.148,33.015.079,49.505.064,4.238-.846,6.187-5.032,6.187Q442.533-602.6,442.1-602.622Zm-608.29.011c-7.3-.284-14.618-.17-21.927-.034-3.315.058-4.721-1.1-4.711-4.562q.136-51.191.057-102.382c-.011-3.427,1.328-4.653,4.665-4.586,2.607.049,5.221.021,7.835-.009,4.519-.05,9.038-.1,13.525.259a11.872,11.872,0,0,1,7.23,4.143c8.887,10.645,17.4,21.6,26.069,32.424,1.135,1.419,2.428,2.713,4.006,4.46,9.477-11.78,18.817-22.982,27.659-34.57,3.586-4.687,7.184-7.582,13.494-6.775a62.449,62.449,0,0,0,9.918.2c1.564-.051,3.129-.1,4.689-.1,7.536.034,7.513.046,7.5,7.854q-.034,45.556-.033,91.135c0,2.8.465,5.731-.171,8.387-.374,1.578-2.44,3.847-3.836,3.9-5.345.215-10.7.185-16.053.154-3.082-.018-6.164-.036-9.244-.006-4.063.034-3.813-2.69-3.813-5.369q-.018-25.877,0-51.753v-6.231c-2.577,2.814-4.211,4.392-5.618,6.151-7,8.8-13.915,17.659-20.929,26.444-3.689,4.607-4.687,4.6-8.478-.125-8.41-10.521-16.74-21.121-25.1-31.687l-1.272.533c0,4.812.012,9.636,0,14.449-.023,14.072-.17,28.135.012,42.2.054,3.948-1.129,5.5-4.893,5.5Q-165.9-602.6-166.195-602.611Zm343.873-.011q-36.84-.154-73.657-.091c-4.369.011-4.7-2.531-4.687-5.868.057-16.491.034-32.992.034-49.483h.011c0-16.491.159-32.992-.09-49.472-.08-5.153,1.52-7.025,6.753-6.684a135.839,135.839,0,0,0,19.1-.034c5.606-.431,7.411,1.226,7.331,7.082-.329,23.425-.125,46.849-.113,70.286.012,7.377.022,7.411,7.388,7.422,12.371.023,24.742.125,37.112-.079,3.916-.068,5.357,1.271,5.209,5.164-.215,5.618-.17,11.246-.023,16.865.08,3.179-.823,4.891-4.336,4.892Z" transform="translate(192.832 714.516)" fill="#055e20" stroke="rgba(0,0,0,0)" stroke-width="1"/>
    </g>
    <g id="Group_2" data-name="Group 2" transform="translate(363.012 164.41)">
      <path id="Mulimi_Logo" data-name="Mulimi Logo" d="M-259.963-11.194a8.51,8.51,0,0,1,.357-2.477c2.835-6.947,5.463-14,8.745-20.744,2.262-4.65,5.633-5.874,10.354-3.925,5.454,2.253,10.694,5.221,12.974,11.221,2.039,5.347.554,9.067-4.4,11.865-7.162,4.05-13.957,8.807-22.622,9.531q-.544.046-1.023.046C-258.884-5.676-259.955-7.346-259.963-11.194Zm10.153-51.2a7.893,7.893,0,0,1-2.043-2.778c-2.788-5.669-3.52-11.151-2.177-16.292,1.317-5.041,4.592-9.623,9.732-13.617,9.6-7.465,19.545-11.094,30.4-11.094,1.226,0,2.482.048,3.734.14s2.482.145,3.7.145c10.785,0,20.7-3.776,29.466-11.224,7.634-6.492,15.529-13.205,21.88-21.066,9.384-11.611,17.9-24.327,25.706-36.338a25.047,25.047,0,0,0,2.945-6.771,66.114,66.114,0,0,0,1.589-7.4c.368-2.195.094-3.908-.791-4.953a3.822,3.822,0,0,0-3.077-1.227,9.643,9.643,0,0,0-2.641.422,88.494,88.494,0,0,0-14.567,5.633,89.84,89.84,0,0,0-13.4,8.155c-5.4,3.962-10.676,7.863-15.828,12.029A158.205,158.205,0,0,0-189.9-155.294a42.093,42.093,0,0,0-3.647,4.59c-.912,1.265-1.856,2.572-2.889,3.761a6.36,6.36,0,0,1-2.374,1.422c-.407.172-.828.351-1.212.554a12.388,12.388,0,0,0-.321-1.264,4.6,4.6,0,0,1-.277-2.634c1.356-3.822,2.83-7.673,4.255-11.4l0-.007c1.422-3.716,2.893-7.558,4.245-11.37a130.994,130.994,0,0,0,4.166-14.117,109.274,109.274,0,0,0,2.36-14.281,96.765,96.765,0,0,0,.313-14.449,92.64,92.64,0,0,0-1.975-14.619,11.612,11.612,0,0,0-3.9-6.677,10.735,10.735,0,0,0-6.876-2.343,14.591,14.591,0,0,0-4.975.92,33,33,0,0,0-14.27,10.023,97.718,97.718,0,0,0-9.953,14.066,85.5,85.5,0,0,0-6.891,15.084A83.808,83.808,0,0,0-237.89-181.9a92.586,92.586,0,0,0-.614,17.209,56.647,56.647,0,0,0,.849,7.475,12.9,12.9,0,0,0,1.956,5.009,10.111,10.111,0,0,0,4.329,3.486,7,7,0,0,1,2.447,2.022,6.507,6.507,0,0,1,1.381,2.806c.182.992-2.228,2.84-4,3.835a73.638,73.638,0,0,0-14.4,10.267,50.37,50.37,0,0,0-5.843,6.474A44.872,44.872,0,0,0-256.4-115.7a156.642,156.642,0,0,0-6.791,17.85c-.533,1.595-1.084,3.243-1.641,4.861a9.24,9.24,0,0,1-1.3,2.665,2,2,0,0,1-1.571.918c-.869,0-1.858-.7-3.027-2.134a87.5,87.5,0,0,1-6.857-10.324c-.491-.82-1-1.668-1.5-2.5a16.756,16.756,0,0,1-1.507-3.835c-.071-.235-.145-.479-.218-.716a14.045,14.045,0,0,0-3.791-6.5,13.443,13.443,0,0,0-7.27-3.109,31.092,31.092,0,0,1-12.147-4.41,27.093,27.093,0,0,1-8.213-8.132,29.038,29.038,0,0,1-2.974-6.006,31.758,31.758,0,0,1-1.592-6.6,34.407,34.407,0,0,1-.2-6.931,36.446,36.446,0,0,1,1.2-7.008c1.152-4.22,1.6-6.944.506-8.38-.764-1-2.282-1.427-5.078-1.427-.867,0-1.9.04-3.162.124a24.073,24.073,0,0,0-6.869,1.9c-.619.238-1.259.483-1.884.707a8.219,8.219,0,0,0-1.744.983,6.251,6.251,0,0,1-2.136,1.082c-.533.1-1.076.253-1.652.411a12.437,12.437,0,0,1-3.164.589,3.651,3.651,0,0,1-3.454-2.207,5.366,5.366,0,0,1,.339-4.795,8.393,8.393,0,0,1,2.066-2.641,6,6,0,0,1,2.906-1.4,175.16,175.16,0,0,1,18.839-1.672c.344-.016.7-.023,1.071-.023,1.737,0,3.511.178,5.227.35,1.41.141,2.867.288,4.3.335.086,0,.172,0,.255,0,1.635,0,2.816-.552,3.325-1.556a3.171,3.171,0,0,0-.567-3.313c-1.453-2-4.439-5.549-8.1-6.866a52.184,52.184,0,0,0-11.09-2.18c-1.341-.164-2.727-.335-4.075-.539-2.959-.447-5.857-1.18-5.955-4.73a3.956,3.956,0,0,1,1.859-3.7,9.06,9.06,0,0,1,3.971-1.146c1.2-.114,2.6-.235,3.945-.235a11.1,11.1,0,0,1,5.139.987,137.844,137.844,0,0,1,20.27,12.393,21.053,21.053,0,0,0,5.132,2.993,14.99,14.99,0,0,0,5.521,1.02c.477,0,.972-.021,1.471-.061.814-.066,1.633-.1,2.436-.1a27.4,27.4,0,0,1,7.881,1.134,25.837,25.837,0,0,1,6.954,3.278,27.058,27.058,0,0,1,5.772,5.234,30.855,30.855,0,0,1,4.335,7c1.108,2.467,2.343,4.954,4.175,5.884a7.714,7.714,0,0,0,3.426.93,4.5,4.5,0,0,0,3.559-1.665,9.261,9.261,0,0,0,1.868-4.6c.654-4.072,1.278-8.218,1.88-12.227,1.75-11.639,3.559-23.674,6.318-35.278a63.609,63.609,0,0,1,24.508-36.947,26.411,26.411,0,0,1,7.329-3.827,24.747,24.747,0,0,1,7.806-1.256,28.421,28.421,0,0,1,12.646,3.1c3.191,1.575,5.545,5.484,7.68,9.352a45.394,45.394,0,0,1,5.29,17.966,114.848,114.848,0,0,1-.149,18.783c-.175,2.586-.479,5.2-.773,7.737l0,.013c-.124,1.071-.252,2.178-.369,3.266a3.7,3.7,0,0,0,.485,2.837,1.449,1.449,0,0,0,1.132.463,4.926,4.926,0,0,0,2.326-.8,55.14,55.14,0,0,0,6.491-4.6,101.424,101.424,0,0,1,16.322-10.527,101.936,101.936,0,0,1,18.031-7.187c.508-.152,1.109-.325,1.717-.447a29.981,29.981,0,0,1,5.992-.646c5.552,0,10,1.843,12.858,5.329a15.14,15.14,0,0,1,3.118,7.03,25.5,25.5,0,0,1-.267,9.469,96.9,96.9,0,0,1-5.9,18.971,117.553,117.553,0,0,1-9.381,17.563c-.512.795-1.031,1.606-1.533,2.39l-.011.016a143.194,143.194,0,0,1-10.259,14.645,277.083,277.083,0,0,1-19.2,20.663,40.782,40.782,0,0,1-9.506,6.763c-3.416,1.82-7.078,3.34-10.619,4.81-3.121,1.3-6.346,2.634-9.391,4.173-2.977,1.5-6.091,2.854-9.1,4.161-.986.428-2,.871-3,1.312a5.441,5.441,0,0,0-2.845,2.492,7.992,7.992,0,0,0-.66,3.874c.194,6.884.319,15-.214,22.989a10.432,10.432,0,0,1-.9,4.21A2.356,2.356,0,0,1-202.6-61.6a12.106,12.106,0,0,1-4.233-1.147l-.584-.238c-5.809-2.37-11.816-4.82-18.075-4.82a22.714,22.714,0,0,0-7.423,1.222c-3.865,1.319-7.619,2.751-11.159,4.256a8.38,8.38,0,0,1-3.218.794A3.9,3.9,0,0,1-249.81-62.4Zm-55.46-86.138a5.1,5.1,0,0,0-1.145,3.926c.006.067.012.135.019.2.117,1.084.925,2.082,2.043,3.463.592.73,1.263,1.559,1.953,2.555.821-.96,1.622-1.758,2.327-2.463,1.361-1.358,2.343-2.339,2.519-3.475a5.793,5.793,0,0,0,.071-.894,4.694,4.694,0,0,0-1.129-3.165,4.472,4.472,0,0,0-3.342-1.412h-.152A4.179,4.179,0,0,0-305.27-148.534Zm15.71-21.162a4.525,4.525,0,0,0-.608.043c-1.283.171-2.448,1.335-3.922,2.809-.764.764-1.629,1.629-2.641,2.484,1.006.864,1.861,1.732,2.616,2.5,1.446,1.466,2.588,2.624,3.884,2.859a4.606,4.606,0,0,0,.809.075,2.994,2.994,0,0,0,2.784-1.715,8.256,8.256,0,0,0,.78-3.618c0-.041,0-.082,0-.124,0-2.56-.965-5.3-3.683-5.31h-.02Z" transform="translate(344.877 253.047)" fill="#ffcf05"/>
    </g>
  </g>
</svg>
